<?xml version="1.0" standalone="no"?><!DOCTYPE svg PUBLIC "-//W3C//DTD SVG 1.1//EN" "http://www.w3.org/Graphics/SVG/1.1/DTD/svg11.dtd"><svg t="1597299011948" class="icon" viewBox="0 0 1024 1024" version="1.1" xmlns="http://www.w3.org/2000/svg" p-id="811" xmlns:xlink="http://www.w3.org/1999/xlink" width="16" height="16"><defs><style type="text/css"></style></defs><path d="M891.20768 974.00832H608.256V723.08736h-194.3552v250.92096H130.94912V557.1584a19.64032 19.64032 0 1 1 39.28064 0v377.56928h204.3904V683.80672h272.93696v250.92096H851.968V557.1584a19.64032 19.64032 0 0 1 39.28064 0z" p-id="812" fill="#d4237a"></path><path d="M986.17344 578.048a19.6608 19.6608 0 0 1-18.30912-12.53376L511.0784 99.7376l-456.704 465.77664a19.6608 19.6608 0 0 1-32.33792 6.656l-1.10592-1.14688a19.59936 19.59936 0 0 1 0-27.48416L497.07008 57.93792a19.59936 19.59936 0 0 1 28.03712 0L1001.30816 543.5392a19.59936 19.59936 0 0 1 0 27.48416l-1.10592 1.14688a19.61984 19.61984 0 0 1-14.0288 5.87776zM879.3088 379.1872a15.36 15.36 0 0 1-15.36-15.36v-154.13248H709.8368a15.36 15.36 0 0 1 0-30.72h184.832v184.85248a15.36 15.36 0 0 1-15.36 15.36z" p-id="813" fill="#d4237a"></path></svg>