<?xml version="1.0" standalone="no"?><!DOCTYPE svg PUBLIC "-//W3C//DTD SVG 1.1//EN" "http://www.w3.org/Graphics/SVG/1.1/DTD/svg11.dtd"><svg t="1598088205101" class="icon" viewBox="0 0 1024 1024" version="1.1" xmlns="http://www.w3.org/2000/svg" p-id="3503" xmlns:xlink="http://www.w3.org/1999/xlink" width="16" height="16"><defs><style type="text/css"></style></defs><path d="M511.999488 128.441301c-211.8295 0-383.557676 171.721013-383.557676 383.557676 0 211.822336 171.728176 383.557676 383.557676 383.557676 211.838709 0 383.557676-171.735339 383.557676-383.557676C895.557164 300.162314 723.838198 128.441301 511.999488 128.441301zM511.999488 865.224834c-195.072861 0-353.224834-158.14481-353.224834-353.225857s158.151973-353.224834 353.224834-353.224834c195.089233 0 353.23302 158.143787 353.23302 353.224834S707.087699 865.224834 511.999488 865.224834zM292.83186 475.353358l0 45.176922L443.514721 676.380838l287.660582-288.202934 0-32.732495L438.942589 578.166979 292.83186 475.353358z" p-id="3504" fill="#bfbfbf"></path></svg>